<svg width="110" height="110" viewBox="0 0 110 110" fill="none" xmlns="http://www.w3.org/2000/svg">
<circle cx="55" cy="55" r="52.5" fill="url(#paint0_linear_553_6)" stroke="white" stroke-width="5"/>
<path fill-rule="evenodd" clip-rule="evenodd" d="M30.7674 35H22V69.6392H30.7674L36.6822 75H46.5509L52.3148 69.6392H74.3611H87V35H74.3611H52.3148L46.5509 40.8763H36.6822L30.7674 35ZM51.5611 55.834C50.6998 54.746 49.6005 54.0773 48.2631 53.828C49.4871 53.4427 50.4618 52.7853 51.1871 51.856C51.9351 50.9267 52.3091 49.7707 52.3091 48.388C52.3091 47.2093 52.0031 46.1553 51.3911 45.226C50.8018 44.2967 49.9178 43.5713 48.7391 43.05C47.5831 42.5287 46.2005 42.268 44.5911 42.268H34.7991V66H45.0331C46.6425 66 48.0365 65.728 49.2151 65.184C50.3938 64.64 51.2891 63.892 51.9011 62.94C52.5358 61.9653 52.8531 60.8433 52.8531 59.574C52.8531 58.1687 52.4225 56.922 51.5611 55.834ZM43.9111 52.06H39.5591V46.11H43.9111C45.0445 46.11 45.9171 46.3707 46.5291 46.892C47.1411 47.4133 47.4471 48.15 47.4471 49.102C47.4471 50.054 47.1411 50.7907 46.5291 51.312C45.9171 51.8107 45.0445 52.06 43.9111 52.06ZM47.0391 61.308C46.4045 61.852 45.5091 62.124 44.3531 62.124H39.5591V55.732H44.2511C45.4071 55.732 46.3251 56.0267 47.0051 56.616C47.6851 57.1827 48.0251 57.976 48.0251 58.996C48.0251 59.9933 47.6965 60.764 47.0391 61.308ZM72.6608 62.498C73.2728 61.4553 73.5788 60.3447 73.5788 59.166C73.5788 57.602 73.2161 56.378 72.4908 55.494C71.7654 54.5873 70.9041 53.9413 69.9068 53.556C68.9321 53.148 67.5948 52.7287 65.8948 52.298V45.872C66.5521 46.076 67.0734 46.4273 67.4588 46.926C67.8668 47.402 68.1048 47.9687 68.1728 48.626H73.3068C73.1481 46.6313 72.4114 45.0673 71.0968 43.934C69.8048 42.8007 68.0708 42.1433 65.8948 41.962V39.208H63.7188V41.962C61.4748 42.1433 59.6388 42.8573 58.2108 44.104C56.8054 45.3507 56.1028 46.96 56.1028 48.932C56.1028 50.496 56.4654 51.7313 57.1908 52.638C57.9161 53.5447 58.7774 54.202 59.7748 54.61C60.7721 55.018 62.0868 55.426 63.7188 55.834V62.328C62.1774 61.988 61.3388 61.002 61.2028 59.37H56.1028C56.1481 61.3647 56.8621 62.9513 58.2448 64.13C59.6274 65.286 61.4521 65.966 63.7188 66.17V68.958H65.8948V66.204C67.4814 66.0907 68.8528 65.7053 70.0088 65.048C71.1874 64.368 72.0714 63.518 72.6608 62.498ZM61.7468 50.53C61.2934 50.054 61.0668 49.442 61.0668 48.694C61.0668 47.8553 61.3048 47.1867 61.7808 46.688C62.2568 46.1893 62.9028 45.8833 63.7188 45.77V51.652C62.8574 51.3573 62.2001 50.9833 61.7468 50.53ZM67.9008 61.342C67.4248 61.886 66.7561 62.2373 65.8948 62.396V56.446C66.7788 56.7407 67.4588 57.1147 67.9348 57.568C68.4108 58.0213 68.6488 58.622 68.6488 59.37C68.6488 60.1407 68.3994 60.798 67.9008 61.342Z" fill="white"/>
<defs>
<linearGradient id="paint0_linear_553_6" x1="55" y1="0" x2="55" y2="110" gradientUnits="userSpaceOnUse">
<stop stop-color="#0573FF"/>
<stop offset="1" stop-color="#BB01FF"/>
</linearGradient>
</defs>
</svg>
